<mxfile host="app.diagrams.net" agent="Mozilla/5.0 (Windows NT 10.0; Win64; x64) AppleWebKit/537.36 (KHTML, like Gecko) Chrome/126.0.0.0 Safari/537.36" version="24.8.3">
  <diagram name="Page-1" id="929967ad-93f9-6ef4-fab6-5d389245f69c">
    <mxGraphModel dx="880" dy="468" grid="0" gridSize="10" guides="1" tooltips="1" connect="1" arrows="1" fold="1" page="1" pageScale="1.5" pageWidth="1169" pageHeight="826" background="none" math="0" shadow="0">
      <root>
        <mxCell id="0" style=";html=1;" />
        <mxCell id="1" style=";html=1;" parent="0" />
        <mxCell id="BDkpAiGpnQuZh4Utp9hv-2" value="&lt;font face=&quot;Times New Roman&quot; style=&quot;font-size: 13px;&quot;&gt;1. Отображение формы лучших акций, категорий и подкатегорий акционных товаров, списка товаров с возможностью фильтрации&lt;/font&gt;&lt;div&gt;&lt;font face=&quot;Times New Roman&quot; style=&quot;font-size: 13px;&quot;&gt;2. Добавление товара в корзину и отображение счетчика&lt;/font&gt;&lt;/div&gt;&lt;div&gt;&lt;font face=&quot;Times New Roman&quot; style=&quot;font-size: 13px;&quot;&gt;3. Запрос на переход к корзине и ее отображение&lt;/font&gt;&lt;/div&gt;&lt;div&gt;&lt;font face=&quot;Times New Roman&quot; style=&quot;font-size: 13px;&quot;&gt;4. Заполнение условий заказа, удаление товаров из корзины&lt;/font&gt;&lt;/div&gt;&lt;div&gt;&lt;font face=&quot;Times New Roman&quot; style=&quot;font-size: 13px;&quot;&gt;5. Переход к оформлению заказа&lt;/font&gt;&lt;/div&gt;" style="rounded=1;whiteSpace=wrap;html=1;align=left;" parent="1" vertex="1">
          <mxGeometry x="310" y="470" width="200" height="370" as="geometry" />
        </mxCell>
        <mxCell id="BDkpAiGpnQuZh4Utp9hv-3" value="&lt;font style=&quot;font-size: 13px;&quot; face=&quot;Times New Roman&quot;&gt;1. Запрос на отображение нужной формы, категории и подкатегории акционных товаров, списка товаров или на вывод ошибки об отсутствии акций&lt;/font&gt;&lt;div style=&quot;font-size: 13px;&quot;&gt;&lt;font style=&quot;font-size: 13px;&quot; face=&quot;Times New Roman&quot;&gt;2. Поиск акционных товаров по заданному фильтру&lt;/font&gt;&lt;/div&gt;&lt;div style=&quot;font-size: 13px;&quot;&gt;&lt;font style=&quot;font-size: 13px;&quot; face=&quot;Times New Roman&quot;&gt;3. Проверка наличия товаров по фильтрам&lt;/font&gt;&lt;/div&gt;&lt;div style=&quot;font-size: 13px;&quot;&gt;&lt;font style=&quot;font-size: 13px;&quot; face=&quot;Times New Roman&quot;&gt;4. Обработка запроса на добавление корзины&lt;/font&gt;&lt;/div&gt;&lt;div style=&quot;font-size: 13px;&quot;&gt;&lt;font style=&quot;font-size: 13px;&quot; face=&quot;Times New Roman&quot;&gt;5. Обработка запроса перехода в корзину&amp;nbsp;&lt;/font&gt;&lt;/div&gt;&lt;div style=&quot;font-size: 13px;&quot;&gt;&lt;font style=&quot;font-size: 13px;&quot; face=&quot;Times New Roman&quot;&gt;6. Формирование условий заказа на основе данных корзины&lt;/font&gt;&lt;/div&gt;&lt;div style=&quot;font-size: 13px;&quot;&gt;&lt;font style=&quot;font-size: 13px;&quot; face=&quot;Times New Roman&quot;&gt;7. Обработка удаления товаров из корзины&lt;/font&gt;&lt;/div&gt;&lt;div style=&quot;font-size: 13px;&quot;&gt;&lt;font style=&quot;font-size: 13px;&quot; face=&quot;Times New Roman&quot;&gt;8. Проверка готовности к оформлению заказа&lt;/font&gt;&lt;/div&gt;&lt;div style=&quot;font-size: 13px;&quot;&gt;&lt;font style=&quot;font-size: 13px;&quot; face=&quot;Times New Roman&quot;&gt;9. Одобрение или отказ перехода к оформлению&lt;br&gt;&lt;/font&gt;&lt;div&gt;&lt;br&gt;&lt;/div&gt;&lt;/div&gt;" style="rounded=1;whiteSpace=wrap;html=1;align=left;" parent="1" vertex="1">
          <mxGeometry x="670" y="475" width="280" height="360" as="geometry" />
        </mxCell>
        <mxCell id="BDkpAiGpnQuZh4Utp9hv-5" value="&lt;font style=&quot;font-size: 13px;&quot; face=&quot;Times New Roman&quot;&gt;1. Хранение данных об акционных товарах, их категориях, подкатегориях и фильтрах&lt;/font&gt;&lt;div style=&quot;font-size: 13px;&quot;&gt;&lt;font face=&quot;iy6kp83bROatx9XoBOjP&quot;&gt;2. Сохранение данных о товарах в корзине&lt;/font&gt;&lt;/div&gt;&lt;div style=&quot;font-size: 13px;&quot;&gt;&lt;font face=&quot;iy6kp83bROatx9XoBOjP&quot;&gt;3. Сохранение условий заказа&lt;/font&gt;&lt;/div&gt;&lt;div style=&quot;font-size: 13px;&quot;&gt;&lt;br&gt;&lt;/div&gt;" style="shape=cylinder3;whiteSpace=wrap;html=1;boundedLbl=1;backgroundOutline=1;size=15;align=left;" parent="1" vertex="1">
          <mxGeometry x="1080" y="480" width="260" height="360" as="geometry" />
        </mxCell>
        <mxCell id="BDkpAiGpnQuZh4Utp9hv-6" value="&lt;font face=&quot;Times New Roman&quot; style=&quot;font-size: 34px;&quot;&gt;A&lt;/font&gt;" style="text;html=1;align=center;verticalAlign=middle;resizable=0;points=[];autosize=1;strokeColor=none;fillColor=none;" parent="1" vertex="1">
          <mxGeometry x="389" y="407" width="43" height="53" as="geometry" />
        </mxCell>
        <mxCell id="BDkpAiGpnQuZh4Utp9hv-7" value="&lt;font face=&quot;Times New Roman&quot; style=&quot;font-size: 34px;&quot;&gt;B&lt;/font&gt;" style="text;html=1;align=center;verticalAlign=middle;resizable=0;points=[];autosize=1;strokeColor=none;fillColor=none;" parent="1" vertex="1">
          <mxGeometry x="790" y="407" width="41" height="53" as="geometry" />
        </mxCell>
        <mxCell id="BDkpAiGpnQuZh4Utp9hv-8" value="&lt;font face=&quot;Times New Roman&quot; style=&quot;font-size: 34px;&quot;&gt;C&lt;/font&gt;" style="text;html=1;align=center;verticalAlign=middle;resizable=0;points=[];autosize=1;strokeColor=none;fillColor=none;" parent="1" vertex="1">
          <mxGeometry x="1185" y="419" width="41" height="53" as="geometry" />
        </mxCell>
        <mxCell id="BDkpAiGpnQuZh4Utp9hv-9" value="" style="endArrow=classic;startArrow=classic;html=1;rounded=0;exitX=1;exitY=0.5;exitDx=0;exitDy=0;entryX=0;entryY=0.5;entryDx=0;entryDy=0;strokeWidth=4;" parent="1" source="BDkpAiGpnQuZh4Utp9hv-2" target="BDkpAiGpnQuZh4Utp9hv-3" edge="1">
          <mxGeometry width="50" height="50" relative="1" as="geometry">
            <mxPoint x="560" y="660" as="sourcePoint" />
            <mxPoint x="610" y="610" as="targetPoint" />
          </mxGeometry>
        </mxCell>
        <mxCell id="BDkpAiGpnQuZh4Utp9hv-18" value="&lt;font style=&quot;font-size: 31px;&quot;&gt;&lt;b&gt;1&lt;/b&gt;&lt;/font&gt;" style="edgeLabel;html=1;align=center;verticalAlign=middle;resizable=0;points=[];fontFamily=Times New Roman;" parent="BDkpAiGpnQuZh4Utp9hv-9" vertex="1" connectable="0">
          <mxGeometry x="0.05" y="1" relative="1" as="geometry">
            <mxPoint x="-4" y="1" as="offset" />
          </mxGeometry>
        </mxCell>
        <mxCell id="BDkpAiGpnQuZh4Utp9hv-11" value="" style="endArrow=classic;startArrow=classic;html=1;rounded=0;entryX=0.012;entryY=0.463;entryDx=0;entryDy=0;entryPerimeter=0;strokeWidth=4;exitX=0.993;exitY=0.472;exitDx=0;exitDy=0;exitPerimeter=0;" parent="1" source="BDkpAiGpnQuZh4Utp9hv-3" target="BDkpAiGpnQuZh4Utp9hv-5" edge="1">
          <mxGeometry width="50" height="50" relative="1" as="geometry">
            <mxPoint x="950" y="660" as="sourcePoint" />
            <mxPoint x="1050" y="610" as="targetPoint" />
          </mxGeometry>
        </mxCell>
        <mxCell id="BDkpAiGpnQuZh4Utp9hv-19" value="&lt;font style=&quot;&quot; size=&quot;1&quot;&gt;&lt;b style=&quot;font-size: 30px;&quot;&gt;2&lt;/b&gt;&lt;/font&gt;" style="edgeLabel;html=1;align=center;verticalAlign=middle;resizable=0;points=[];fontFamily=Times New Roman;" parent="BDkpAiGpnQuZh4Utp9hv-11" vertex="1" connectable="0">
          <mxGeometry x="0.1385" y="-2" relative="1" as="geometry">
            <mxPoint x="-14" y="-7" as="offset" />
          </mxGeometry>
        </mxCell>
        <mxCell id="BDkpAiGpnQuZh4Utp9hv-12" value="" style="whiteSpace=wrap;html=1;aspect=fixed;" parent="1" vertex="1">
          <mxGeometry x="380" y="780" width="50" height="50" as="geometry" />
        </mxCell>
        <mxCell id="BDkpAiGpnQuZh4Utp9hv-13" value="&lt;font face=&quot;Times New Roman&quot; style=&quot;font-size: 29px;&quot;&gt;&lt;b style=&quot;&quot;&gt;A - frontend, мобильное приложение&lt;/b&gt;&lt;/font&gt;&lt;div style=&quot;font-size: 29px;&quot;&gt;&lt;font face=&quot;JWFbZ90biR_1YbXz2f2_&quot; style=&quot;font-size: 29px;&quot;&gt;&lt;b&gt;B - бэкенд/сервер&lt;/b&gt;&lt;/font&gt;&lt;/div&gt;&lt;div style=&quot;font-size: 29px;&quot;&gt;&lt;font face=&quot;JWFbZ90biR_1YbXz2f2_&quot; style=&quot;font-size: 29px;&quot;&gt;&lt;b style=&quot;&quot;&gt;С - реляционная база данных PostgreSQL&lt;/b&gt;&lt;/font&gt;&lt;/div&gt;" style="text;html=1;align=left;verticalAlign=middle;resizable=0;points=[];autosize=1;strokeColor=none;fillColor=none;" parent="1" vertex="1">
          <mxGeometry x="296" y="883" width="563" height="116" as="geometry" />
        </mxCell>
        <mxCell id="BDkpAiGpnQuZh4Utp9hv-22" value="&lt;font size=&quot;1&quot; face=&quot;Times New Roman&quot; style=&quot;&quot;&gt;&lt;b style=&quot;font-size: 29px;&quot;&gt;1 - протокол взаимодействия https&lt;/b&gt;&lt;/font&gt;&lt;div&gt;&lt;font size=&quot;1&quot; face=&quot;Times New Roman&quot; style=&quot;&quot;&gt;&lt;b style=&quot;font-size: 29px;&quot;&gt;&amp;nbsp; &amp;nbsp; &amp;nbsp; &amp;nbsp; &amp;nbsp; &amp;nbsp; &amp;nbsp; &amp;nbsp; &amp;nbsp; &amp;nbsp; &amp;nbsp; &amp;nbsp; &amp;nbsp; 2 - PostgreSQL протокол взаимодействия TCP/IP&lt;/b&gt;&lt;/font&gt;&lt;/div&gt;" style="text;html=1;align=center;verticalAlign=middle;resizable=0;points=[];autosize=1;strokeColor=none;fillColor=none;" parent="1" vertex="1">
          <mxGeometry x="722" y="883" width="844" height="82" as="geometry" />
        </mxCell>
        <mxCell id="7W-nTFBUBndwOUisUAlm-3" value="&lt;font face=&quot;Times New Roman&quot; style=&quot;font-size: 29px;&quot;&gt;&lt;b&gt;Формирование заказа из акционных товаров&lt;/b&gt;&lt;/font&gt;" style="text;html=1;align=center;verticalAlign=middle;resizable=0;points=[];autosize=1;strokeColor=none;fillColor=none;" parent="1" vertex="1">
          <mxGeometry x="509" y="332" width="609" height="47" as="geometry" />
        </mxCell>
        <mxCell id="Whn8Knbf5_u71gmOXlLf-1" value="&lt;span style=&quot;font-family: &amp;quot;Times New Roman&amp;quot;; font-size: 44px; text-wrap: wrap;&quot;&gt;PG&lt;/span&gt;" style="text;html=1;align=center;verticalAlign=middle;resizable=0;points=[];autosize=1;strokeColor=none;fillColor=none;" parent="1" vertex="1">
          <mxGeometry x="1173" y="503" width="74" height="65" as="geometry" />
        </mxCell>
      </root>
    </mxGraphModel>
  </diagram>
</mxfile>
